<svg width="790" height="128" viewBox="0 0 790 128" fill="none" xmlns="http://www.w3.org/2000/svg">
<g clip-path="url(#clip0_24_12)">
<path d="M782.38 75.4278C758.654 58.356 734.916 66.8876 711.19 75.4278C687.464 83.968 663.726 92.4996 640 75.4278C640 86.3355 640 97.2345 640 108.142C663.726 125.214 687.464 116.682 711.19 108.142C734.916 99.602 758.654 91.0705 782.38 108.142C782.38 97.2345 782.38 86.3355 782.38 75.4278Z" fill="#FF2800"/>
<path d="M640 42.6428C663.726 25.571 687.464 34.1026 711.19 42.6428C734.916 51.183 758.654 59.7145 782.38 42.6428C782.38 53.5505 782.38 64.4495 782.38 75.3572C758.654 92.429 734.916 83.8974 711.19 75.3572C687.464 66.817 663.726 58.2854 640 75.3572C640 64.4495 640 53.5504 640 42.6428Z" fill="#FF2800" fill-opacity="0.65"/>
<path d="M782.38 9.85772C758.654 -7.21405 734.916 1.31753 711.19 9.85772C687.464 18.3979 663.726 26.9295 640 9.85771C640 20.7654 640 31.6645 640 42.5721C663.726 59.6439 687.464 51.1123 711.19 42.5722C734.916 34.032 758.654 25.5004 782.38 42.5722C782.38 31.6645 782.38 20.7654 782.38 9.85772Z" fill="#FF2800" fill-opacity="0.25"/>
<path d="M17 96H0L37.9375 6.625H55.75L94.5 96H76.6875L66.5 71.625L60.5 57.25L46.4375 23.6875L17 96Z" fill="white"/>
<path d="M118.22 51.0625C118.22 71.8542 127.449 82.25 145.908 82.25C163.908 82.25 172.908 71.8542 172.908 51.0625C172.908 30.6042 163.908 20.375 145.908 20.375C127.449 20.375 118.22 30.6042 118.22 51.0625ZM101.033 51.4375C101.033 21.1458 115.991 6 145.908 6C175.366 6 190.095 21.1458 190.095 51.4375C190.095 76.3542 180.824 91.0625 162.283 95.5625L176.783 112.438L163.72 122.375L143.408 96.625C116.491 96.625 102.366 81.5625 101.033 51.4375Z" fill="white"/>
<path d="M289.628 6.625L250.44 96H232.628L195.128 6.625H214.815L242.503 75.0625L270.128 6.625H289.628Z" fill="white"/>
<path d="M306.91 96H289.91L327.848 6.625H345.66L384.41 96H366.598L356.41 71.625L350.41 57.25L336.348 23.6875L306.91 96Z" fill="white"/>
<path d="M410.63 6.625V81.625H446.13V96H394.068V6.625H410.63Z" fill="white"/>
<path d="M518.975 6.625V21H493.35V96H476.788V21H451.163V6.625H518.975Z" fill="white"/>
<path d="M536.32 96H519.32L557.258 6.625H575.07L613.82 96H596.008L585.82 71.625L579.82 57.25L565.758 23.6875L536.32 96Z" fill="white"/>
</g>
<defs>
<clipPath id="clip0_24_12">
<rect width="790" height="128" fill="white"/>
</clipPath>
</defs>
</svg>
